<?xml version="1.0" encoding="utf-8"?>
<!-- Generator: Adobe Illustrator 18.0.0, SVG Export Plug-In . SVG Version: 6.00 Build 0)  -->
<!DOCTYPE svg PUBLIC "-//W3C//DTD SVG 1.1//EN" "http://www.w3.org/Graphics/SVG/1.1/DTD/svg11.dtd">
<svg version="1.1" id="Ebene_1" xmlns="http://www.w3.org/2000/svg" xmlns:xlink="http://www.w3.org/1999/xlink" x="0px" y="0px"
	 viewBox="0 0 800 300" enable-background="new 0 0 800 300" xml:space="preserve">
<rect x="-78.7" y="-11.5" fill="#133C33" stroke="#000000" stroke-miterlimit="10" width="913.9" height="329.6"/>
<g>
	<polygon fill="#0B241F" points="178.5,205.3 220.6,196.6 213.1,179.7 169.9,174.2 208.1,168.4 200.2,150.8 173.4,147 196.6,142.5 
		190.1,127.9 169.9,125 187,120.9 179.9,105 169.7,101.6 176.9,98.2 165.8,73.3 155.9,95.8 148.6,112.4 161.2,115.2 145.1,120.1 
		139.4,132.8 162.3,136.1 135.5,141.6 129.6,155 162.5,160.2 125,165.4 119.6,177.4 162.7,187.8 116,185.5 109.1,201 154.8,208 
		156.4,212.1 148.7,232 182.9,232 175.2,212.1 	"/>
	<g>
		<linearGradient id="SVGID_1_" gradientUnits="userSpaceOnUse" x1="264.4947" y1="232.5931" x2="264.4947" y2="72.9881">
			<stop  offset="0" style="stop-color:#133C33"/>
			<stop  offset="1" style="stop-color:#000000"/>
		</linearGradient>
		<path fill="url(#SVGID_1_)" d="M262.4,77.2h-36.5v-2V73h76.9v2.2v2.2l0.2-0.2H267v155.4h-2.4h-2.2V77.2z"/>
		<linearGradient id="SVGID_2_" gradientUnits="userSpaceOnUse" x1="360.8934" y1="232.5931" x2="360.8934" y2="72.7684">
			<stop  offset="0" style="stop-color:#133C33"/>
			<stop  offset="1" style="stop-color:#000000"/>
		</linearGradient>
		<path fill="url(#SVGID_2_)" d="M395,232.6h-4.8l-9.9-48.1H342l-10.3,48.1h-4.8l32.3-159.8h3.7L395,232.6z M378.9,179.8l-17.8-95
			l-18.5,95H378.9z M360.2,72.8h0.2h0.4h0.2h0.2h0.4H360.2z"/>
		<linearGradient id="SVGID_3_" gradientUnits="userSpaceOnUse" x1="434.4281" y1="232.5931" x2="434.4281" y2="72.7684">
			<stop  offset="0" style="stop-color:#133C33"/>
			<stop  offset="1" style="stop-color:#000000"/>
		</linearGradient>
		<path fill="url(#SVGID_3_)" d="M432.1,232.6V72.8h2.3h2.3v159.8h-2.3H432.1z"/>
		<linearGradient id="SVGID_4_" gradientUnits="userSpaceOnUse" x1="514.0542" y1="234.7913" x2="514.0542" y2="70.5701">
			<stop  offset="0" style="stop-color:#133C33"/>
			<stop  offset="1" style="stop-color:#000000"/>
		</linearGradient>
		<path fill="url(#SVGID_4_)" d="M517.6,162.7v-4.6l28.8,0.2V198c0,0.4,0,1.6-0.1,3.5c-0.1,1.9-0.4,4.2-0.9,6.8
			c-0.5,2.6-1.4,5.5-2.7,8.6c-1.3,3.1-3.2,6-5.5,8.6c-5.7,6.2-13.6,9.3-23.5,9.3c-10.1,0-17.8-3-23.1-9c-2.6-2.8-4.6-5.8-5.8-9
			c-1.2-3.2-2.1-6.3-2.5-9.1c-0.4-2.9-0.6-5.3-0.5-7.4c0.1-2.1,0.1-3.3,0.1-3.7v-90.4c0-11.7,3.5-20.9,10.6-27.5
			c2.8-2.5,6-4.5,9.8-5.9c3.7-1.5,7.6-2.2,11.5-2.2c3.7,0,7.4,0.7,11.1,2.1c3.7,1.4,7.1,3.7,10.2,6.8c3.1,3.1,5.6,7.1,7.5,11.9
			c1.9,4.8,2.9,10.4,2.9,17h-4.6c0-5.7-0.8-10.7-2.4-14.8c-1.6-4.2-3.7-7.6-6.3-10.3c-2.6-2.7-5.5-4.7-8.7-6c-3.2-1.3-6.5-2-9.7-2
			c-3.4,0-6.7,0.6-10,1.8c-3.3,1.2-6.2,3-8.8,5.6c-2.6,2.6-4.6,5.8-6.2,9.7c-1.5,3.9-2.3,8.5-2.3,13.8v90.7v0.2
			c0,3.7,0.2,6.8,0.5,9.4c0.4,2.6,1.1,5.3,2.2,8.3c1.1,2.9,2.7,5.6,4.9,7.9c4.7,5.1,11.2,7.7,19.6,7.7c8.6,0,15.4-2.6,20.2-7.7
			c2.2-2.3,3.8-4.9,4.9-7.7c1.1-2.8,1.9-5.4,2.3-7.8c0.4-2.4,0.7-5.3,0.7-8.7v-0.2l-0.2-35.2L517.6,162.7z"/>
		<linearGradient id="SVGID_5_" gradientUnits="userSpaceOnUse" x1="613.264" y1="232.5931" x2="613.264" y2="72.7684">
			<stop  offset="0" style="stop-color:#133C33"/>
			<stop  offset="1" style="stop-color:#000000"/>
		</linearGradient>
		<path fill="url(#SVGID_5_)" d="M647.3,232.6h-4.8l-9.9-48.1h-38.3L584,232.6h-4.8l32.3-159.8h3.7L647.3,232.6z M631.3,179.8
			l-17.8-95l-18.5,95H631.3z M612.6,72.8h0.2h0.4h0.2h0.2h0.4H612.6z"/>
	</g>
	<g>
		<linearGradient id="SVGID_6_" gradientUnits="userSpaceOnUse" x1="260.7135" y1="232.5931" x2="260.7135" y2="72.9881">
			<stop  offset="0" style="stop-color:#133C33"/>
			<stop  offset="1" style="stop-color:#FFFFFF"/>
		</linearGradient>
		<path fill="url(#SVGID_6_)" d="M258.6,77.2h-36.5v-2V73h76.9v2.2v2.2l0.2-0.2h-36.1v155.4h-2.4h-2.2V77.2z"/>
		<linearGradient id="SVGID_7_" gradientUnits="userSpaceOnUse" x1="357.1122" y1="232.5931" x2="357.1122" y2="72.7684">
			<stop  offset="0" style="stop-color:#133C33"/>
			<stop  offset="1" style="stop-color:#FFFFFF"/>
		</linearGradient>
		<path fill="url(#SVGID_7_)" d="M391.2,232.6h-4.8l-9.9-48.1h-38.3l-10.3,48.1H323l32.3-159.8h3.7L391.2,232.6z M375.1,179.8
			l-17.8-95l-18.5,95H375.1z M356.5,72.8h0.2h0.4h0.2h0.2h0.4H356.5z"/>
		<linearGradient id="SVGID_8_" gradientUnits="userSpaceOnUse" x1="430.6468" y1="232.5931" x2="430.6468" y2="72.7684">
			<stop  offset="0" style="stop-color:#133C33"/>
			<stop  offset="1" style="stop-color:#FFFFFF"/>
		</linearGradient>
		<path fill="url(#SVGID_8_)" d="M428.3,232.6V72.8h2.3h2.3v159.8h-2.3H428.3z"/>
		<linearGradient id="SVGID_9_" gradientUnits="userSpaceOnUse" x1="510.2729" y1="234.7913" x2="510.2729" y2="70.5701">
			<stop  offset="0" style="stop-color:#133C33"/>
			<stop  offset="1" style="stop-color:#FFFFFF"/>
		</linearGradient>
		<path fill="url(#SVGID_9_)" d="M513.9,162.7v-4.6l28.8,0.2V198c0,0.4,0,1.6-0.1,3.5c-0.1,1.9-0.4,4.2-0.9,6.8
			c-0.5,2.6-1.4,5.5-2.7,8.6c-1.3,3.1-3.2,6-5.5,8.6c-5.7,6.2-13.6,9.3-23.5,9.3c-10.1,0-17.8-3-23.1-9c-2.6-2.8-4.6-5.8-5.8-9
			c-1.2-3.2-2.1-6.3-2.5-9.1c-0.4-2.9-0.6-5.3-0.5-7.4c0.1-2.1,0.1-3.3,0.1-3.7v-90.4c0-11.7,3.5-20.9,10.6-27.5
			c2.8-2.5,6-4.5,9.8-5.9c3.7-1.5,7.6-2.2,11.5-2.2c3.7,0,7.4,0.7,11.1,2.1c3.7,1.4,7.1,3.7,10.2,6.8c3.1,3.1,5.6,7.1,7.5,11.9
			c1.9,4.8,2.9,10.4,2.9,17h-4.6c0-5.7-0.8-10.7-2.4-14.8c-1.6-4.2-3.7-7.6-6.3-10.3c-2.6-2.7-5.5-4.7-8.7-6c-3.2-1.3-6.5-2-9.7-2
			c-3.4,0-6.7,0.6-10,1.8c-3.3,1.2-6.2,3-8.8,5.6c-2.6,2.6-4.6,5.8-6.2,9.7c-1.5,3.9-2.3,8.5-2.3,13.8v90.7v0.2
			c0,3.7,0.2,6.8,0.5,9.4c0.4,2.6,1.1,5.3,2.2,8.3c1.1,2.9,2.7,5.6,4.9,7.9c4.7,5.1,11.2,7.7,19.6,7.7c8.6,0,15.4-2.6,20.2-7.7
			c2.2-2.3,3.8-4.9,4.9-7.7c1.1-2.8,1.9-5.4,2.3-7.8c0.4-2.4,0.7-5.3,0.7-8.7v-0.2l-0.2-35.2L513.9,162.7z"/>
		<linearGradient id="SVGID_10_" gradientUnits="userSpaceOnUse" x1="609.4827" y1="232.5931" x2="609.4827" y2="72.7684">
			<stop  offset="0" style="stop-color:#133C33"/>
			<stop  offset="1" style="stop-color:#FFFFFF"/>
		</linearGradient>
		<path fill="url(#SVGID_10_)" d="M643.6,232.6h-4.8l-9.9-48.1h-38.3l-10.3,48.1h-4.8l32.3-159.8h3.7L643.6,232.6z M627.5,179.8
			l-17.8-95l-18.5,95H627.5z M608.8,72.8h0.2h0.4h0.2h0.2h0.4H608.8z"/>
	</g>
</g>
</svg>
